PathFileType	4	(X/Y/Z)	Run_300 02
DataRate	CameraRate	NumFrames	NumMarkers	Units	OrigDataRate	OrigDataStartFrame	OrigNumFrames
100	100	4	45	mm	100	71	137
Frame#	Time	LASI			RASI			LPSI			RPSI			RTH1			RTH2			RTH3			LTH1			LTH2			LTH3			RTB1			RTB2			RTB3			RLMAL			RMMAL			LTB1			LTB2			LTB3			RCAL			RTOE			RMT5			LCAL			LTOE			LMT5			LACR			RACR			CLAV			C7			LPSH			RUA1			RUA2			RUA3			RLEL			RMEL			LUA1			LUA2			LUA3			LLEL			LMEL			RFAsuperior			RFAradius			RFAulna			LFAsuperior			LFAradius			LFAulna		
		X1	Y1	Z1	X2	Y2	Z2	X3	Y3	Z3	X4	Y4	Z4	X5	Y5	Z5	X6	Y6	Z6	X7	Y7	Z7	X8	Y8	Z8	X9	Y9	Z9	X10	Y10	Z10	X11	Y11	Z11	X12	Y12	Z12	X13	Y13	Z13	X14	Y14	Z14	X15	Y15	Z15	X16	Y16	Z16	X17	Y17	Z17	X18	Y18	Z18	X19	Y19	Z19	X20	Y20	Z20	X21	Y21	Z21	X22	Y22	Z22	X23	Y23	Z23	X24	Y24	Z24	X25	Y25	Z25	X26	Y26	Z26	X27	Y27	Z27	X28	Y28	Z28	X29	Y29	Z29	X30	Y30	Z30	X31	Y31	Z31	X32	Y32	Z32	X33	Y33	Z33	X34	Y34	Z34	X35	Y35	Z35	X36	Y36	Z36	X37	Y37	Z37	X38	Y38	Z38	X39	Y39	Z39	X40	Y40	Z40	X41	Y41	Z41	X42	Y42	Z42	X43	Y43	Z43	X44	Y44	Z44	X45	Y45	Z45	

71	  0.710000	951.152705	1091.955943	-430.367439	965.572239	1077.855199	-201.393307	793.471177	1133.672803	-355.237393	798.324386	1128.669626	-265.459763	800.411152	840.081399	-149.786598	842.467818	753.879553	-182.387324	739.214206	683.962197	-182.050100	908.021321	880.464309	-476.791755	1026.298124	813.280707	-471.024675	1017.921151	703.481119	-452.591123	668.499857	439.433923	-232.738881	599.494239	412.440025	-194.859776	556.811524	291.513908	-246.378990	462.014607	215.927021	-237.717190	496.621406	224.458823	-314.269514	1083.402689	482.882104	-422.122951	975.917391	402.805044	-441.884269	1019.897569	300.844788	-402.792095	409.166910	244.110093	-303.057193	536.685649	 72.302341	-291.981313	475.437909	 90.396204	-222.742456	888.139950	179.880950	-347.861522	1097.807755	108.139665	-383.412755	1031.773226	104.495884	-447.162752	891.150754	1597.651747	-451.580845	951.318259	1565.123376	-143.682985	998.401544	1514.143350	-289.662812	887.764286	1605.521273	-288.608396	806.612151	1573.856667	-438.404342	928.205132	1415.977908	-52.078470	850.988670	1364.779574	-40.905002	869.753955	1308.252160	 -4.273343	892.578355	1241.972036	  9.883894	830.662184	1231.177366	-58.060485	770.702423	1518.270476	-494.538050	699.023151	1466.279710	-459.397745	673.355638	1432.724638	-522.041718	638.635838	1359.856947	-546.487699	630.639380	1352.259391	-455.564642	940.262529	1213.300615	-46.173377	1061.576605	1318.505869	-168.623980	1054.505064	1252.692153	-187.090411	700.393103	1287.983861	-522.461556	873.110655	1303.422748	-496.694203	858.716098	1236.899496	-502.191039	
72	  0.720000	953.282622	1096.084937	-430.263656	967.772104	1081.927088	-201.506161	796.475632	1138.127285	-355.501267	801.083369	1132.997973	-265.351382	798.745152	846.214820	-149.981700	840.509752	759.092924	-181.151602	737.115478	690.089684	-182.111901	907.074679	882.856970	-475.340668	1022.299728	813.203267	-471.188389	1011.937891	703.329689	-451.169677	661.784439	446.413530	-232.507247	592.372130	421.550502	-194.316316	545.205964	302.169460	-245.214309	447.949455	230.661936	-235.914622	482.937892	236.987319	-312.204194	1087.438712	481.998907	-422.452945	987.985740	392.262151	-440.988386	1040.969315	295.123219	-401.005689	398.694417	262.586977	-301.023182	516.470999	 77.630878	-289.188852	454.309790	104.677230	-220.912287	920.457088	163.120085	-344.536996	1136.283210	110.890420	-378.159606	1071.094162	 99.218739	-441.555068	891.034806	1601.810186	-452.094713	952.162438	1569.914935	-145.194652	998.992763	1518.569434	-290.840191	888.433103	1609.289069	-289.748039	806.591747	1578.533704	-437.662839	930.071804	1421.269693	-53.665732	852.980266	1370.105409	-41.540618	872.140863	1313.274572	 -5.620838	894.997420	1246.653143	  8.391283	831.584568	1236.295840	-58.975642	769.474123	1524.198744	-492.435239	698.923440	1472.966390	-454.783223	671.062956	1439.032613	-516.330983	634.555220	1366.041890	-539.105276	629.195197	1359.225378	-448.129067	941.706218	1219.403933	-48.831140	1058.983683	1327.943843	-172.535025	1053.336403	1261.926096	-190.706388	696.941788	1294.106494	-516.520399	870.389730	1309.668365	-495.716949	855.826505	1243.077468	-500.005411	
73	  0.730000	955.388746	1098.694528	-429.480521	969.350592	1085.481344	-200.968747	798.889549	1141.253147	-355.733625	803.279160	1136.314742	-265.038902	798.975926	850.656519	-149.877553	841.377562	762.761705	-181.603495	738.333713	693.827669	-182.351761	904.815333	883.278194	-473.515716	1017.281604	811.092963	-471.061346	1005.361884	701.426302	-451.442907	657.000658	451.839797	-233.107060	587.133634	429.728700	-194.467044	534.064585	312.952046	-244.526565	433.433770	246.633921	-234.804177	469.164721	250.020089	-310.706332	1090.108653	480.207482	-422.553724	999.287434	382.007062	-439.349222	1060.403258	290.304408	-398.747318	388.022365	281.091441	-300.487475	495.569516	 85.489200	-285.072325	433.011595	120.976802	-218.278426	951.377969	150.003025	-341.127258	1171.158800	114.317427	-371.443669	1107.763991	 95.559656	-435.094542	891.059054	1604.794904	-452.851548	952.892181	1573.481497	-146.735153	999.700460	1521.868223	-292.188668	889.182031	1611.967157	-291.081408	806.832359	1581.941433	-437.280778	931.671989	1425.206282	-55.323086	854.508297	1374.309645	-42.371646	873.968763	1317.247824	 -6.841956	896.668443	1250.291042	  7.051332	831.855885	1240.378839	-59.642074	768.520957	1528.736795	-490.558019	699.170495	1477.793360	-450.445323	669.250360	1443.819024	-510.987602	631.334499	1370.626589	-532.354255	628.460504	1364.420544	-441.334651	942.437900	1224.003672	-51.062448	1056.513924	1334.743190	-175.984198	1051.987877	1268.576504	-193.740494	694.384712	1298.725150	-511.162456	868.358682	1314.536894	-494.809354	853.810918	1247.913114	-498.387324	
74	  0.740000	957.381631	1099.953414	-428.222905	970.473704	1088.428585	-199.881718	800.622369	1142.854259	-355.668722	804.896071	1138.441436	-264.532594	801.459580	852.769242	-149.465857	844.978916	764.559961	-183.828650	742.482820	695.123166	-182.818722	902.002783	882.802885	-472.158391	1012.399059	807.826330	-470.758893	998.606556	698.104440	-453.386065	653.737076	455.928531	-233.758645	582.867686	437.573568	-194.977788	523.424457	323.995138	-243.859852	418.907931	263.681220	-234.142086	455.768892	263.497091	-309.583356	1091.297377	477.825905	-422.932759	1008.824438	372.664429	-436.717971	1077.612384	286.602170	-396.215240	376.990424	299.267876	-301.276515	474.152081	 97.058116	-279.591046	412.054954	138.997881	-214.708338	979.961258	140.912535	-337.012027	1201.793818	117.785616	-364.124856	1140.407766	 93.034503	-428.202271	891.352605	1606.527785	-453.980315	953.607012	1575.742035	-148.300003	1000.473423	1523.992374	-293.668141	890.037766	1613.671492	-292.629205	807.351982	1584.117492	-437.422582	932.915723	1427.744945	-56.943430	855.492480	1377.355007	-43.362817	875.104268	1320.121333	 -7.909439	897.506867	1252.867103	  5.923847	831.579138	1243.402446	-60.168829	767.931711	1531.673142	-489.048976	699.834421	1480.648025	-446.482329	667.900170	1446.993137	-506.055850	628.954993	1373.527348	-526.381034	628.417718	1367.725059	-435.255375	942.486594	1227.067251	-52.755523	1054.331925	1338.819914	-178.904065	1050.542029	1272.542402	-196.200531	692.673043	1301.795847	-506.464878	867.050127	1317.940462	-494.098988	852.661109	1251.309092	-497.380904	
